<mxfile host="65bd71144e">
    <diagram id="3BmnB01BhGxOov4BkFDs" name="第 1 页">
        <mxGraphModel dx="968" dy="424" grid="0" gridSize="10" guides="1" tooltips="1" connect="1" arrows="1" fold="1" page="1" pageScale="1" pageWidth="1654" pageHeight="1169" background="#ffffff" math="0" shadow="0">
            <root>
                <mxCell id="0"/>
                <mxCell id="1" parent="0"/>
                <mxCell id="7" style="edgeStyle=none;html=1;exitX=0.25;exitY=1;exitDx=0;exitDy=0;entryX=0.25;entryY=0;entryDx=0;entryDy=0;fontSize=16;fontColor=#000000;fillColor=none;strokeColor=#000000;" edge="1" parent="1" source="2" target="3">
                    <mxGeometry relative="1" as="geometry"/>
                </mxCell>
                <mxCell id="2" value="&lt;font style=&quot;font-size: 16px&quot;&gt;请求层&lt;/font&gt;" style="rounded=0;whiteSpace=wrap;html=1;fillColor=none;strokeColor=#000000;fontColor=#000000;" vertex="1" parent="1">
                    <mxGeometry x="360" y="140" width="120" height="60" as="geometry"/>
                </mxCell>
                <mxCell id="8" value="" style="edgeStyle=none;exitX=0.75;exitY=0;exitDx=0;exitDy=0;entryX=0.75;entryY=1;entryDx=0;entryDy=0;fontSize=16;fontColor=#000000;fillColor=none;strokeColor=#000000;" edge="1" parent="1" source="3" target="2">
                    <mxGeometry relative="1" as="geometry"/>
                </mxCell>
                <mxCell id="9" style="edgeStyle=none;html=1;exitX=0.25;exitY=1;exitDx=0;exitDy=0;entryX=0.25;entryY=0;entryDx=0;entryDy=0;fontSize=16;fontColor=#000000;fillColor=none;strokeColor=#000000;" edge="1" parent="1" source="3" target="4">
                    <mxGeometry relative="1" as="geometry"/>
                </mxCell>
                <mxCell id="3" value="&lt;font style=&quot;font-size: 16px&quot;&gt;数据层&lt;/font&gt;" style="rounded=0;whiteSpace=wrap;html=1;fillColor=none;strokeColor=#000000;fontColor=#000000;" vertex="1" parent="1">
                    <mxGeometry x="361" y="260" width="120" height="60" as="geometry"/>
                </mxCell>
                <mxCell id="10" style="edgeStyle=none;html=1;exitX=0.75;exitY=0;exitDx=0;exitDy=0;entryX=0.75;entryY=1;entryDx=0;entryDy=0;fontSize=16;fontColor=#000000;fillColor=none;strokeColor=#000000;" edge="1" parent="1" source="4" target="3">
                    <mxGeometry relative="1" as="geometry"/>
                </mxCell>
                <mxCell id="32" style="edgeStyle=none;html=0;exitX=1;exitY=0.75;exitDx=0;exitDy=0;entryX=0;entryY=0.75;entryDx=0;entryDy=0;dashed=1;fontSize=16;fontColor=#000000;startArrow=none;startFill=0;endArrow=block;endFill=0;strokeColor=#000000;elbow=vertical;" edge="1" parent="1" source="4" target="18">
                    <mxGeometry relative="1" as="geometry"/>
                </mxCell>
                <mxCell id="4" value="&lt;font style=&quot;font-size: 16px&quot;&gt;视图层&lt;/font&gt;" style="rounded=0;whiteSpace=wrap;html=1;fillColor=none;strokeColor=#000000;fontColor=#000000;" vertex="1" parent="1">
                    <mxGeometry x="361" y="390" width="120" height="60" as="geometry"/>
                </mxCell>
                <mxCell id="13" style="edgeStyle=none;html=1;exitX=0.5;exitY=1;exitDx=0;exitDy=0;entryX=0.5;entryY=0;entryDx=0;entryDy=0;fontSize=16;dashed=1;endArrow=block;endFill=1;fontColor=#000000;fillColor=none;strokeColor=#000000;" edge="1" parent="1" source="11" target="2">
                    <mxGeometry relative="1" as="geometry"/>
                </mxCell>
                <mxCell id="11" value="数据库" style="shape=process;whiteSpace=wrap;html=1;backgroundOutline=1;fontSize=16;fillColor=none;strokeColor=#000000;fontColor=#000000;" vertex="1" parent="1">
                    <mxGeometry x="360" y="70" width="120" height="30" as="geometry"/>
                </mxCell>
                <mxCell id="15" value="数据" style="text;html=1;resizable=0;autosize=1;align=center;verticalAlign=middle;points=[];rounded=0;fontSize=16;fillColor=#FFFFFF;strokeColor=none;fontColor=#000000;strokeWidth=0;" vertex="1" parent="1">
                    <mxGeometry x="365" y="220" width="50" height="20" as="geometry"/>
                </mxCell>
                <mxCell id="17" value="元数据" style="text;html=1;resizable=0;autosize=1;align=center;verticalAlign=middle;points=[];rounded=0;fontSize=16;fillColor=#FFFFFF;strokeColor=none;fontColor=#000000;strokeWidth=0;" vertex="1" parent="1">
                    <mxGeometry x="360" y="342" width="60" height="20" as="geometry"/>
                </mxCell>
                <mxCell id="19" style="edgeStyle=none;html=0;exitX=0.007;exitY=0.377;exitDx=0;exitDy=0;dashed=1;fontSize=16;endArrow=block;endFill=0;fontColor=#000000;fillColor=none;strokeColor=#000000;exitPerimeter=0;" edge="1" parent="1" source="18">
                    <mxGeometry relative="1" as="geometry">
                        <mxPoint x="479" y="413" as="targetPoint"/>
                    </mxGeometry>
                </mxCell>
                <mxCell id="18" value="硬盘" style="shape=process;whiteSpace=wrap;html=1;backgroundOutline=1;fontSize=16;fillColor=none;strokeColor=#000000;fontColor=#000000;" vertex="1" parent="1">
                    <mxGeometry x="618" y="390" width="120" height="60" as="geometry"/>
                </mxCell>
                <mxCell id="20" value="文件内容" style="text;html=1;resizable=0;autosize=1;align=center;verticalAlign=middle;points=[];rounded=0;fontSize=16;fillColor=none;strokeColor=none;fontColor=#000000;strokeWidth=0;" vertex="1" parent="1">
                    <mxGeometry x="510" y="390" width="80" height="20" as="geometry"/>
                </mxCell>
                <mxCell id="21" value="Actor" style="shape=umlActor;verticalLabelPosition=bottom;verticalAlign=top;html=1;outlineConnect=0;fontSize=16;fontStyle=0;textOpacity=0;fillColor=none;strokeColor=#000000;fontColor=#000000;" vertex="1" parent="1">
                    <mxGeometry x="406" y="510" width="30" height="60" as="geometry"/>
                </mxCell>
                <mxCell id="29" value="用户" style="text;html=1;resizable=0;autosize=1;align=center;verticalAlign=middle;points=[];rounded=0;fontSize=16;fillColor=none;strokeColor=none;fontColor=#000000;strokeWidth=0;" vertex="1" parent="1">
                    <mxGeometry x="396" y="580" width="50" height="20" as="geometry"/>
                </mxCell>
                <mxCell id="31" value="" style="endArrow=block;startArrow=none;html=1;dashed=1;fontSize=16;elbow=vertical;startFill=0;endFill=0;fontColor=#000000;fillColor=none;strokeColor=#000000;" edge="1" parent="1" source="30">
                    <mxGeometry width="50" height="50" relative="1" as="geometry">
                        <mxPoint x="371" y="500" as="sourcePoint"/>
                        <mxPoint x="421" y="450" as="targetPoint"/>
                    </mxGeometry>
                </mxCell>
                <mxCell id="30" value="交互" style="text;html=1;resizable=0;autosize=1;align=center;verticalAlign=middle;points=[];rounded=0;fontSize=16;fillColor=#FFFFFF;strokeColor=none;fontColor=#000000;strokeWidth=0;" vertex="1" parent="1">
                    <mxGeometry x="396" y="470" width="50" height="20" as="geometry"/>
                </mxCell>
                <mxCell id="34" value="" style="endArrow=none;startArrow=block;html=1;dashed=1;fontSize=16;elbow=vertical;startFill=0;endFill=0;fontColor=#000000;fillColor=none;strokeColor=#000000;" edge="1" parent="1" source="21" target="30">
                    <mxGeometry width="50" height="50" relative="1" as="geometry">
                        <mxPoint x="421" y="510" as="sourcePoint"/>
                        <mxPoint x="421" y="450" as="targetPoint"/>
                    </mxGeometry>
                </mxCell>
                <mxCell id="33" value="根据元数据" style="text;html=1;resizable=0;autosize=1;align=center;verticalAlign=middle;points=[];rounded=0;fontSize=16;fillColor=none;strokeColor=none;fontColor=#000000;strokeWidth=0;" vertex="1" parent="1">
                    <mxGeometry x="502" y="433" width="90" height="23" as="geometry"/>
                </mxCell>
                <mxCell id="16" value="调用API" style="text;html=1;resizable=0;autosize=1;align=center;verticalAlign=middle;points=[];rounded=0;fontSize=16;fillColor=#FFFFFF;strokeColor=none;fontColor=#000000;strokeWidth=0;" vertex="1" parent="1">
                    <mxGeometry x="420" y="342" width="70" height="20" as="geometry"/>
                </mxCell>
                <mxCell id="36" value="调用API" style="text;html=1;resizable=0;autosize=1;align=center;verticalAlign=middle;points=[];rounded=0;fontSize=16;fillColor=#FFFFFF;strokeColor=none;fontColor=#000000;strokeWidth=0;" vertex="1" parent="1">
                    <mxGeometry x="420" y="220" width="70" height="20" as="geometry"/>
                </mxCell>
            </root>
        </mxGraphModel>
    </diagram>
</mxfile>